<svg xmlns="http://www.w3.org/2000/svg" viewBox="0 0 640 480" role="img" aria-label="Kahve maskesi">
  <rect width="640" height="480" fill="#2a1712"/>
  <path d="M130 150c92-62 288-62 380 0 10 116-42 206-190 206S120 266 130 150Z" fill="#f1d9bd"/>
  <path d="M210 222c36-30 78-30 116 0M314 222c36-30 78-30 116 0" fill="none" stroke="#2a1712" stroke-width="18" stroke-linecap="round"/>
  <path d="M270 300c34 20 66 20 100 0" fill="none" stroke="#8c4a32" stroke-width="16" stroke-linecap="round"/>
  <path d="M250 116c-32-30-8-58 16-82M320 108c-28-32-4-60 20-86M392 116c-30-30-6-58 18-82" fill="none" stroke="#c8a24a" stroke-width="13" stroke-linecap="round"/>
</svg>
