<svg xmlns="http://www.w3.org/2000/svg" viewBox="0 0 640 480" role="img" aria-label="Luis Mask logo">
  <rect width="640" height="480" fill="#14110f"/>
  <path d="M120 145c85-58 315-58 400 0 2 110-45 210-200 210S118 255 120 145Z" fill="#f5efe6"/>
  <path d="M205 218c34-36 86-34 117 0-42 18-78 18-117 0Zm113 0c34-36 86-34 117 0-42 18-78 18-117 0Z" fill="#161514"/>
  <path d="M270 300c35 30 70 30 105 0" fill="none" stroke="#b23a48" stroke-width="18" stroke-linecap="round"/>
  <path d="M320 90v70" stroke="#c8a24a" stroke-width="16" stroke-linecap="round"/>
  <text x="320" y="420" text-anchor="middle" font-family="Georgia, serif" font-size="58" fill="#c8a24a" letter-spacing="6">LUIS MASK</text>
</svg>
