<svg xmlns="http://www.w3.org/2000/svg" viewBox="0 0 900 620" role="img" aria-label="Luis Mask sıcak restoran kimliği">
  <rect width="900" height="620" fill="#171210"/>
  <circle cx="685" cy="130" r="78" fill="#c8a24a" opacity=".9"/>
  <path d="M116 418c88-118 206-178 356-178 122 0 224 44 306 132v166H116Z" fill="#2a211d"/>
  <path d="M190 402c72-58 162-88 270-88 110 0 202 34 276 102" fill="none" stroke="#f1d9bd" stroke-width="22" stroke-linecap="round"/>
  <path d="M225 422h444c-18 78-88 132-222 132S245 500 225 422Z" fill="#fff4e6"/>
  <path d="M300 392c-8-54 28-96 82-96h142c54 0 90 42 82 96" fill="#b32635"/>
  <path d="M364 356c32-22 66-22 98 0M448 356c32-22 66-22 98 0" fill="none" stroke="#fff4e6" stroke-width="14" stroke-linecap="round"/>
  <path d="M404 392c36 20 76 20 112 0" fill="none" stroke="#fff4e6" stroke-width="12" stroke-linecap="round"/>
  <path d="M174 172h180c20 0 36 16 36 36v6c0 62-50 112-112 112h-28c-62 0-112-50-112-112v-6c0-20 16-36 36-36Z" fill="#f1d9bd"/>
  <path d="M390 214h34c0 46-38 84-84 84h-10" fill="none" stroke="#f1d9bd" stroke-width="24" stroke-linecap="round"/>
  <path d="M208 136c-22-24-4-50 16-74M268 134c-24-24-4-50 18-76M324 136c-22-24-4-50 16-74" fill="none" stroke="#c8a24a" stroke-width="12" stroke-linecap="round"/>
  <text x="116" y="104" font-family="Georgia, serif" font-size="54" fill="#fff4e6">Luis Mask</text>
  <text x="118" y="145" font-family="Arial, sans-serif" font-size="22" fill="#d8c6ad">Güven, lezzet, umut ve eğlence</text>
</svg>
